<svg width="12" height="10" viewBox="0 0 12 10" fill="none" xmlns="http://www.w3.org/2000/svg">
<path fill-rule="evenodd" clip-rule="evenodd" d="M5.99994 2.5C4.61923 2.5 3.49994 3.61929 3.49994 5C3.49994 6.38071 4.61923 7.5 5.99994 7.5C7.38065 7.5 8.49994 6.38071 8.49994 5C8.49994 3.61929 7.38065 2.5 5.99994 2.5ZM4.49994 5C4.49994 4.17157 5.17151 3.5 5.99994 3.5C6.82837 3.5 7.49994 4.17157 7.49994 5C7.49994 5.82843 6.82837 6.5 5.99994 6.5C5.17151 6.5 4.49994 5.82843 4.49994 5Z" fill="white"/>
<path fill-rule="evenodd" clip-rule="evenodd" d="M5.99996 0.5C4.55306 0.5 3.31483 1.14064 2.35756 1.89371C1.39924 2.64761 0.686464 3.54183 0.278058 4.12004L0.276733 4.12192C0.0966871 4.37933 0.00012207 4.68587 0.00012207 5C0.00012207 5.31413 0.0966871 5.62067 0.276733 5.87808L0.278058 5.87996C0.686464 6.45817 1.39924 7.35239 2.35756 8.10629C3.31483 8.85936 4.55306 9.5 5.99996 9.5C7.44685 9.5 8.68508 8.85936 9.64235 8.10629C10.6007 7.35239 11.3134 6.45817 11.7219 5.87996L11.7232 5.87808C11.9032 5.62067 11.9998 5.31413 11.9998 5C11.9998 4.68587 11.9032 4.37933 11.7232 4.12192L11.7219 4.12004C11.3134 3.54183 10.6007 2.64761 9.64235 1.89371C8.68508 1.14064 7.44685 0.5 5.99996 0.5ZM1.00012 5C1.00012 4.89125 1.03345 4.78511 1.09561 4.69589C1.47381 4.16059 2.12224 3.35119 2.97585 2.67966C3.83108 2.00686 4.85635 1.5 5.99996 1.5C7.14356 1.5 8.16883 2.00686 9.02406 2.67966C9.87767 3.35119 10.5261 4.16059 10.9043 4.69589C10.9665 4.78511 10.9998 4.89124 10.9998 5C10.9998 5.10876 10.9665 5.21491 10.9043 5.30413C10.5261 5.83943 9.87766 6.64882 9.02406 7.32034C8.16883 7.99314 7.14356 8.5 5.99996 8.5C4.85635 8.5 3.83108 7.99314 2.97585 7.32034C2.12225 6.64882 1.47383 5.83943 1.09562 5.30412C1.03346 5.2149 1.00012 5.10876 1.00012 5Z" fill="white"/>
</svg>
